<svg width="28" height="28" viewBox="0 0 28 28" fill="none" xmlns="http://www.w3.org/2000/svg">
<path fill-rule="evenodd" clip-rule="evenodd" d="M14.0001 0.666687C15.751 0.666679 17.4848 1.01155 19.1025 1.68161C20.7202 2.35167 22.1901 3.33379 23.4282 4.5719C24.6663 5.81002 25.6484 7.27987 26.3185 8.89755C26.9886 10.5152 27.3334 12.249 27.3334 14C27.3334 21.3638 21.3639 27.3334 14.0001 27.3334C6.63631 27.3334 0.666748 21.3638 0.666748 14C0.666748 6.63625 6.63631 0.666687 14.0001 0.666687ZM15.3334 15.3334H12.6667C9.36581 15.3334 6.53187 17.3326 5.30956 20.1864C7.24356 22.8983 10.4153 24.6667 14.0001 24.6667C17.5848 24.6667 20.7566 22.8983 22.6906 20.1862C21.4683 17.3326 18.6344 15.3334 15.3334 15.3334ZM14.0001 4.66669C11.7909 4.66669 10.0001 6.45756 10.0001 8.66669C10.0001 10.8758 11.7909 12.6667 14.0001 12.6667C16.2092 12.6667 18.0001 10.8758 18.0001 8.66669C18.0001 6.45756 16.2092 4.66669 14.0001 4.66669Z" fill="url(#paint0_linear_204_2494)"/>
<defs>
<linearGradient id="paint0_linear_204_2494" x1="-2.41449" y1="32.6667" x2="29.5851" y2="33.1893" gradientUnits="userSpaceOnUse">
<stop offset="0.298146" stop-color="#FF7F49"/>
<stop offset="0.628142" stop-color="#FFBC6A"/>
<stop offset="1" stop-color="#9CE3DC"/>
</linearGradient>
</defs>
</svg>
