<svg width="186" height="30" viewBox="0 0 186 30" fill="none" xmlns="http://www.w3.org/2000/svg">
<path d="M183.359 22.6719C185.117 22.6719 185.996 23.5573 185.996 25.3281V26.5586C185.996 27.3789 185.768 28.0234 185.312 28.4922C184.87 28.9609 184.219 29.1953 183.359 29.1953H180.957C180.098 29.1953 179.44 28.9609 178.984 28.4922C178.542 28.0234 178.32 27.3789 178.32 26.5586V25.3281C178.32 24.4688 178.548 23.8112 179.004 23.3555C179.46 22.8997 180.111 22.6719 180.957 22.6719H183.359Z" fill="#40B9AC"/>
<path d="M154.941 26.5781C152.91 24.7031 151.895 21.9427 151.895 18.2969C151.895 14.638 152.91 11.8776 154.941 10.0156C156.973 8.14062 159.889 7.20312 163.691 7.20312C167.507 7.20312 170.43 8.14062 172.461 10.0156C174.492 11.8776 175.508 14.638 175.508 18.2969C175.508 21.9427 174.492 24.7031 172.461 26.5781C170.43 28.4531 167.507 29.3906 163.691 29.3906C159.889 29.3906 156.973 28.4531 154.941 26.5781ZM159.883 13.2188C159.076 14.2734 158.672 15.9596 158.672 18.2773C158.672 20.5951 159.076 22.2878 159.883 23.3555C160.69 24.4232 161.96 24.957 163.691 24.957C165.436 24.957 166.712 24.4232 167.52 23.3555C168.34 22.2878 168.75 20.5951 168.75 18.2773C168.75 15.9596 168.34 14.2734 167.52 13.2188C166.712 12.1641 165.436 11.6367 163.691 11.6367C161.96 11.6367 160.69 12.1641 159.883 13.2188Z" fill="url(#paint0_radial_229_1796)"/>
<path d="M145.488 24.7617L148.164 24.5273H148.887C149.238 24.5273 149.525 24.638 149.746 24.8594C149.98 25.0807 150.098 25.3672 150.098 25.7188V27.8086C150.098 28.0951 149.98 28.3555 149.746 28.5898C149.525 28.8112 149.238 28.9479 148.887 29C147.559 29.2604 145.827 29.3906 143.691 29.3906C138.092 29.3906 135.293 26.4609 135.293 20.6016V2.20312C135.293 1.85156 135.404 1.5651 135.625 1.34375C135.859 1.10938 136.146 0.992188 136.484 0.992188H140.859C141.198 0.992188 141.478 1.10938 141.699 1.34375C141.934 1.5651 142.051 1.85156 142.051 2.20312V8.72656H147.5C147.839 8.72656 148.118 8.83724 148.34 9.05859C148.574 9.27995 148.691 9.56641 148.691 9.91797V12.2422C148.691 12.5938 148.574 12.8802 148.34 13.1016C148.118 13.3229 147.839 13.4336 147.5 13.4336H142.051V20.6016C142.051 21.9297 142.363 22.9583 142.988 23.6875C143.613 24.4036 144.447 24.7617 145.488 24.7617Z" fill="url(#paint1_radial_229_1796)"/>
<path d="M127.676 24.7617L130.352 24.5273H131.074C131.426 24.5273 131.712 24.638 131.934 24.8594C132.168 25.0807 132.285 25.3672 132.285 25.7188V27.8086C132.285 28.0951 132.168 28.3555 131.934 28.5898C131.712 28.8112 131.426 28.9479 131.074 29C129.746 29.2604 128.014 29.3906 125.879 29.3906C120.28 29.3906 117.48 26.4609 117.48 20.6016V2.20312C117.48 1.85156 117.591 1.5651 117.812 1.34375C118.047 1.10938 118.333 0.992188 118.672 0.992188H123.047C123.385 0.992188 123.665 1.10938 123.887 1.34375C124.121 1.5651 124.238 1.85156 124.238 2.20312V8.72656H129.688C130.026 8.72656 130.306 8.83724 130.527 9.05859C130.762 9.27995 130.879 9.56641 130.879 9.91797V12.2422C130.879 12.5938 130.762 12.8802 130.527 13.1016C130.306 13.3229 130.026 13.4336 129.688 13.4336H124.238V20.6016C124.238 21.9297 124.551 22.9583 125.176 23.6875C125.801 24.4036 126.634 24.7617 127.676 24.7617Z" fill="url(#paint2_radial_229_1796)"/>
<path d="M94.082 26.5391C92.0768 24.638 91.0742 21.9036 91.0742 18.3359C91.0742 14.7552 92.0833 12.0078 94.1016 10.0938C96.1198 8.16667 98.9193 7.20312 102.5 7.20312C106.081 7.20312 108.874 8.14062 110.879 10.0156C112.884 11.8776 113.887 14.5534 113.887 18.043V19.1562C113.887 19.5078 113.77 19.8008 113.535 20.0352C113.314 20.2565 113.027 20.3672 112.676 20.3672H97.9688C98.099 21.9688 98.5547 23.1341 99.3359 23.8633C100.13 24.5924 101.393 24.957 103.125 24.957C104.857 24.957 106.042 24.5664 106.68 23.7852C107.318 23.0039 108.105 22.6068 109.043 22.5938H111.953C112.305 22.5938 112.591 22.7109 112.812 22.9453C113.047 23.1667 113.164 23.4531 113.164 23.8047C113.164 27.5417 109.603 29.4036 102.48 29.3906C98.8867 29.3906 96.0872 28.4401 94.082 26.5391ZM97.9297 16.2461H107.012C106.882 13.1732 105.371 11.6367 102.48 11.6367C99.6029 11.6367 98.0859 13.1732 97.9297 16.2461Z" fill="url(#paint3_radial_229_1796)"/>
<path d="M89.8438 28.1406C89.8438 28.7135 89.5052 29 88.8281 29H85.1367C83.8867 29 82.8906 28.388 82.1484 27.1641L79.668 23.1211C78.6003 21.3893 77.0508 20.5234 75.0195 20.5234V27.8086C75.0195 28.1602 74.9023 28.4466 74.668 28.668C74.4466 28.8893 74.1667 29 73.8281 29H69.4531C69.1016 29 68.8151 28.8893 68.5938 28.668C68.3724 28.4466 68.2617 28.1602 68.2617 27.8086V2.20312C68.2617 1.85156 68.3724 1.5651 68.5938 1.34375C68.8281 1.10938 69.1146 0.992188 69.4531 0.992188H73.8281C74.1797 0.992188 74.4661 1.10938 74.6875 1.34375C74.9089 1.5651 75.0195 1.85156 75.0195 2.20312V16.0703C77.2852 16.0703 78.8346 15.1914 79.668 13.4336L81.543 9.44922C81.8034 8.88932 82.1875 8.4401 82.6953 8.10156C83.2031 7.76302 83.75 7.59375 84.3359 7.59375H88.0273C88.6784 7.59375 89.0039 7.84766 89.0039 8.35547C89.0039 8.64193 88.8997 9.00651 88.6914 9.44922L86.1719 14.7617C85.7422 15.6471 85.1562 16.4089 84.4141 17.0469C83.6719 17.6849 82.8711 18.0951 82.0117 18.2773C83.6133 18.7591 85 19.931 86.1719 21.793L89.4922 27.1641C89.7135 27.5417 89.8307 27.8672 89.8438 28.1406Z" fill="url(#paint4_radial_229_1796)"/>
<path d="M53.7695 29.3906C50.1237 29.3906 47.2852 28.4531 45.2539 26.5781C43.2227 24.7031 42.207 21.9492 42.207 18.3164C42.207 14.6706 43.2161 11.9102 45.2344 10.0352C47.2526 8.14714 50.0586 7.20312 53.6523 7.20312C57.2591 7.20312 60.026 7.77604 61.9531 8.92188C63.8932 10.0677 64.8633 11.7604 64.8633 14C64.8633 14.3516 64.7461 14.638 64.5117 14.8594C64.2904 15.0807 64.0039 15.1914 63.6523 15.1914H60.7422C59.8568 15.1914 59.1081 14.7161 58.4961 13.7656C57.7279 12.5417 56.3672 11.9297 54.4141 11.9297C52.474 11.9297 51.1133 12.431 50.332 13.4336C49.5638 14.4232 49.1797 16.0443 49.1797 18.2969C49.1797 20.5495 49.5768 22.1771 50.3711 23.1797C51.1784 24.1823 52.5716 24.6836 54.5508 24.6836C56.543 24.6836 57.9232 24.0716 58.6914 22.8477C59.3034 21.8841 60.0521 21.4023 60.9375 21.4023H63.8477C64.1992 21.4023 64.4857 21.5195 64.707 21.7539C64.9414 21.9753 65.0586 22.2552 65.0586 22.5938C65.0586 24.8333 64.0885 26.526 62.1484 27.6719C60.2214 28.8177 57.4284 29.3906 53.7695 29.3906Z" fill="url(#paint5_radial_229_1796)"/>
<path d="M31.6992 3.51172V2.84766C31.6992 2.15755 31.8945 1.61068 32.2852 1.20703C32.6888 0.803385 33.2422 0.601562 33.9453 0.601562H36.3672C37.0573 0.601562 37.6042 0.803385 38.0078 1.20703C38.4115 1.59766 38.6133 2.14453 38.6133 2.84766V3.51172C38.6133 4.20182 38.4115 4.7487 38.0078 5.15234C37.6172 5.55599 37.0703 5.75781 36.3672 5.75781H33.9453C33.2552 5.75781 32.7083 5.55599 32.3047 5.15234C31.901 4.7487 31.6992 4.20182 31.6992 3.51172ZM31.7773 27.8086V9.27344C31.7773 8.92188 31.888 8.63542 32.1094 8.41406C32.3438 8.19271 32.6302 8.08203 32.9688 8.08203H37.3438C37.6953 8.08203 37.9818 8.19922 38.2031 8.43359C38.4245 8.65495 38.5352 8.9349 38.5352 9.27344V27.8086C38.5352 28.1602 38.418 28.4466 38.1836 28.668C37.9622 28.8893 37.6823 29 37.3438 29H32.9688C32.6172 29 32.3307 28.8893 32.1094 28.668C31.888 28.4466 31.7773 28.1602 31.7773 27.8086Z" fill="url(#paint6_radial_229_1796)"/>
<path d="M0.390625 4.68359V2.84766C0.390625 2.3138 0.566406 1.87109 0.917969 1.51953C1.26953 1.16797 1.71224 0.992188 2.24609 0.992188H27.0312C27.5651 0.992188 28.0078 1.16797 28.3594 1.51953C28.7109 1.87109 28.8867 2.3138 28.8867 2.84766V4.68359C28.8867 5.21745 28.7109 5.66016 28.3594 6.01172C28.0078 6.35026 27.5651 6.51953 27.0312 6.51953H18.3203V27.2031C18.3203 27.7109 18.138 28.1406 17.7734 28.4922C17.4219 28.8307 16.9922 29 16.4844 29H12.793C12.2852 29 11.849 28.8307 11.4844 28.4922C11.1328 28.1406 10.957 27.7109 10.957 27.2031V6.51953H2.24609C1.71224 6.51953 1.26953 6.35026 0.917969 6.01172C0.566406 5.66016 0.390625 5.21745 0.390625 4.68359Z" fill="url(#paint7_radial_229_1796)"/>
<defs>
<radialGradient id="paint0_radial_229_1796" cx="0" cy="0" r="1" gradientTransform="matrix(114.746 17.5312 -11.1502 180.413 92.4454 67.7313)" gradientUnits="userSpaceOnUse">
<stop offset="0.197115" stop-color="#FF7F49"/>
<stop offset="0.557692" stop-color="#FFBC6A"/>
</radialGradient>
<radialGradient id="paint1_radial_229_1796" cx="0" cy="0" r="1" gradientTransform="matrix(114.746 17.5312 -11.1502 180.412 92.4454 67.7312)" gradientUnits="userSpaceOnUse">
<stop offset="0.197115" stop-color="#FF7F49"/>
<stop offset="0.557692" stop-color="#FFBC6A"/>
</radialGradient>
<radialGradient id="paint2_radial_229_1796" cx="0" cy="0" r="1" gradientTransform="matrix(114.746 17.5312 -11.1502 180.412 92.4454 67.7313)" gradientUnits="userSpaceOnUse">
<stop offset="0.197115" stop-color="#FF7F49"/>
<stop offset="0.557692" stop-color="#FFBC6A"/>
</radialGradient>
<radialGradient id="paint3_radial_229_1796" cx="0" cy="0" r="1" gradientTransform="matrix(114.746 17.5313 -11.1502 180.413 92.4454 67.7312)" gradientUnits="userSpaceOnUse">
<stop offset="0.197115" stop-color="#FF7F49"/>
<stop offset="0.557692" stop-color="#FFBC6A"/>
</radialGradient>
<radialGradient id="paint4_radial_229_1796" cx="0" cy="0" r="1" gradientTransform="matrix(114.746 17.5313 -11.1502 180.413 92.4454 67.7313)" gradientUnits="userSpaceOnUse">
<stop offset="0.197115" stop-color="#FF7F49"/>
<stop offset="0.557692" stop-color="#FFBC6A"/>
</radialGradient>
<radialGradient id="paint5_radial_229_1796" cx="0" cy="0" r="1" gradientTransform="matrix(114.746 17.5313 -11.1502 180.413 92.4454 67.7313)" gradientUnits="userSpaceOnUse">
<stop offset="0.197115" stop-color="#FF7F49"/>
<stop offset="0.557692" stop-color="#FFBC6A"/>
</radialGradient>
<radialGradient id="paint6_radial_229_1796" cx="0" cy="0" r="1" gradientTransform="matrix(114.746 17.5313 -11.1502 180.412 92.4454 67.7312)" gradientUnits="userSpaceOnUse">
<stop offset="0.197115" stop-color="#FF7F49"/>
<stop offset="0.557692" stop-color="#FFBC6A"/>
</radialGradient>
<radialGradient id="paint7_radial_229_1796" cx="0" cy="0" r="1" gradientTransform="matrix(114.746 17.5313 -11.1502 180.413 92.4454 67.7313)" gradientUnits="userSpaceOnUse">
<stop offset="0.197115" stop-color="#FF7F49"/>
<stop offset="0.557692" stop-color="#FFBC6A"/>
</radialGradient>
</defs>
</svg>
